Coordinates
version=1
nRows=13
nColumns=36
inDegrees=yes

Units are S.I. units (second, meters, Newtons, ...)
If the header above contains a line with 'inDegrees', this indicates whether rotational values are in degrees (yes) or radians (no).

endheader
time	pelvis_tilt	pelvis_list	pelvis_rotation	pelvis_tx	pelvis_ty	pelvis_tz	hip_flexion_r	hip_adduction_r	hip_rotation_r	knee_angle_r	knee_angle_r_beta	ankle_angle_r	subtalar_angle_r	mtp_angle_r	hip_flexion_l	hip_adduction_l	hip_rotation_l	knee_angle_l	knee_angle_l_beta	ankle_angle_l	subtalar_angle_l	mtp_angle_l	lumbar_extension	lumbar_bending	lumbar_rotation	arm_flex_r	arm_add_r	arm_rot_r	elbow_flex_r	pro_sup_r	arm_flex_l	arm_add_l	arm_rot_l	elbow_flex_l	pro_sup_l
      4.48333330	    -40.00029372	     -4.27495737	      4.75898869	     -0.43585189	      0.58612739	      0.02174210	    113.63975101	    -15.74183623	      0.29943937	    100.67957767	      1.75719012	     31.52748557	     -3.64777449	     -7.49999987	    115.02568887	     -9.63575992	      5.49141099	     96.12171042	      1.67764033	     29.73017791	     -7.22851249	     -7.49999987	    -10.92839216	      2.95962179	      1.69842525	     80.20746073	     -9.87662756	     74.47730687	    138.37289205	     98.11139928	     93.07666472	      9.32626992	     66.54911137	    117.92416372	    105.47607502
      4.50000000	    -39.88508379	     -4.27860023	      4.65693544	     -0.43060453	      0.59178813	      0.01821842	    111.89654756	    -15.40878155	     -0.04636774	     99.14222867	      1.73035832	     31.64925566	     -3.76817075	     -7.49999987	    113.47619045	     -9.75894803	      5.53507693	     94.78794977	      1.65436181	     30.07901830	     -7.07697851	     -7.49999987	    -10.21386876	      2.89229866	      1.09012869	     80.04069258	     -8.78153994	     75.41537310	    140.69091491	     98.00727492	     92.22884254	     10.17230559	     66.74399725	    118.56547389	    104.93501930
      4.51666670	    -39.54373922	     -4.42128351	      4.43912996	     -0.42550933	      0.60068318	      0.02981015	    109.83658565	    -14.83657464	     -0.58092682	     97.60019405	      1.70344474	     31.71066197	     -4.07917652	     -7.49999987	    111.77267077	    -10.19153423	      5.72589904	     93.51400944	      1.63212736	     30.58015548	     -6.86116192	     -7.49999987	     -9.60674744	      2.85161083	      2.15232200	     79.86718111	     -8.99786915	     72.39360571	    141.00061975	     95.27793911	     91.34243500	      9.74370635	     68.42744003	    120.69281300	    102.15593977
      4.53333330	    -39.06932263	     -4.41706999	      4.29021474	     -0.42663374	      0.60236312	      0.02201026	    108.14819189	    -14.44628767	     -0.86777078	     96.45499956	      1.68345732	     31.85170586	     -4.25525530	     -7.49999987	    110.20938661	    -10.59324706	      5.70172617	     92.50200957	      1.61446463	     30.76487692	     -6.87764136	     -7.49999987	     -9.05055369	      2.75975718	      2.02459544	     80.08258179	     -8.38904060	     67.09623251	    142.74642061	    104.73902056	     91.02075475	     10.03602292	     65.69677569	    122.01902042	    106.31534578
      4.55000000	    -38.45935123	     -4.32024942	      4.13152235	     -0.42123744	      0.61148693	      0.02514115	    106.36306012	    -14.00049123	     -1.16725031	     95.31123583	      1.66349488	     32.03717856	     -4.42878211	     -7.49999987	    108.50963444	    -11.03507865	      5.61048693	     91.51323855	      1.59720732	     30.96514346	     -6.98592187	     -7.49999987	     -8.24615186	      2.52135284	      1.48249412	     79.73898658	     -8.56272556	     67.33643303	    142.26334667	    104.90982231	     90.31593230	     10.17949822	     65.19213989	    122.79043425	    106.20375226
      4.56666670	    -37.79589247	     -4.40520545	      4.06273232	     -0.43038463	      0.61969278	      0.03072164	    104.61202629	    -13.61048711	     -1.51820340	     94.19586749	      1.64402803	     31.94963019	     -4.60753061	     -7.49999987	    106.96372314	    -11.45360673	      5.60177473	     90.50925608	      1.57968452	     31.15909544	     -6.86697999	     -7.49999987	     -7.82630182	      2.77712888	      1.70878612	     80.18698583	     -8.80197748	     63.55153417	    140.23794942	    105.15773917	     90.03345841	      8.44574519	     63.97432320	    123.81015775	    105.87030670
      4.58333330	    -37.67026515	     -4.49607547	      4.03795730	     -0.42490806	      0.64311647	      0.03354219	    102.86153049	    -13.28806507	     -1.96315425	     92.44124523	      1.61340409	     31.89464180	     -4.77953272	     -7.49999987	    105.49006626	    -11.80825967	      5.39722501	     88.92074472	      1.55195977	     31.08971585	     -6.68159384	     -7.49999987	     -7.23809340	      2.91873823	      2.26654833	     79.18130261	     -7.87249817	     69.53825669	    137.36388945	    103.76156612	     87.73657282	      6.44114265	     64.96668900	    123.84644148	    103.67660684
      4.60000000	    -37.27285448	     -4.55604394	      3.94716941	     -0.41305250	      0.66185529	      0.02468129	    100.49018744	    -13.00384658	     -2.49140403	     90.27531738	      1.57560152	     31.84954745	     -4.97704154	     -7.49999987	    103.32420608	    -12.12702510	      5.15765837	     86.98040667	      1.51809448	     31.01189408	     -6.57289143	     -7.49999987	     -6.90534549	      3.20048320	      2.14048730	     78.43646750	     -7.90364158	     72.73493137	    138.06624004	    102.04055079	     86.15496229	      7.79406086	     65.73135388	    124.11968703	    101.48953148
      4.61666670	    -36.33168473	     -4.52003869	      3.82496506	     -0.41324691	      0.66672650	      0.02477052	     97.80080720	    -12.64729847	     -2.87369507	     88.29732844	      1.54107910	     31.77466536	     -4.95713277	     -7.49999987	    100.72527671	    -12.45924556	      4.92884583	     85.26019924	      1.48807120	     30.78998623	     -6.67716125	     -7.49999987	     -6.57310117	      3.37391079	      1.76883628	     78.01660675	     -8.03652497	     69.26210113	    139.49326429	    102.63835894	     85.30383911	      8.12463927	     63.77905593	    125.08246594	    101.94665046
      4.63333330	    -35.67680657	     -4.38468820	      3.67512200	     -0.39587959	      0.67924682	      0.01987726	     95.21504965	    -12.33374151	     -3.09963630	     86.26078157	      1.50553465	     31.86207810	     -4.85450811	     -7.49999987	     98.15080503	    -12.71916738	      4.61740026	     83.44086186	      1.45631777	     30.78917071	     -6.52660045	     -7.49999987	     -5.48941173	      3.49324522	      1.43209996	     75.12076337	     -7.60162748	     71.01299271	    140.76440693	    102.97403385	     82.65047562	      7.40744698	     64.42584461	    124.92325628	    102.14195740
      4.65000000	    -34.82372054	     -4.18727073	      3.56560165	     -0.39635131	      0.68399870	      0.02018927	     92.68298679	    -12.09579648	     -3.18721482	     84.53806624	      1.47546760	     32.18453130	     -4.44345714	     -7.49999987	     95.53770769	    -12.97110477	      4.20293876	     81.88561728	      1.42917363	     31.03035185	     -6.25070873	     -7.49999987	     -4.69347644	      3.53744163	      0.98825607	     74.04360009	     -7.86243200	     60.16831749	    141.74305284	    110.90859852	     81.93569194	      7.58272617	     60.83049480	    125.12438666	    106.22072104
      4.66666670	    -34.24652401	     -4.03276446	      3.45844979	     -0.39817179	      0.69640189	      0.02183907	     90.60381141	    -11.87115540	     -3.33055903	     82.86953213	      1.44634619	     32.14367999	     -4.27819276	     -7.49999987	     93.44095636	    -13.24006184	      3.76727041	     80.36356936	      1.40260888	     31.02760116	     -6.13823784	     -7.49999987	     -3.40950227	      3.26587949	      0.56810007	     72.71323810	     -5.54281204	     62.14379301	    141.58753433	    110.60483752	     80.53612502	      7.62177978	     61.23285789	    124.80949909	    105.91070492
      4.68333330	    -33.66787189	     -3.78260118	      3.49235466	     -0.39862458	      0.71549015	      0.02148416	     88.32797892	    -11.95531709	     -3.57607863	     80.89131567	      1.41181979	     32.07260376	     -4.07086027	     -7.49999987	     91.13867488	    -13.28195759	      3.16075243	     78.43063099	      1.36887275	     30.73532484	     -6.04132592	     -7.49999987	     -3.09476463	      3.79561813	     -0.82188070	     73.54199106	     -4.06255115	     70.05422465	    137.50660506	    109.13716812	     79.06650747	      4.84413837	     60.88682920	    124.64807106	    103.97551358
